<?xml version="1.0" standalone="no"?><!DOCTYPE svg PUBLIC "-//W3C//DTD SVG 1.1//EN" "http://www.w3.org/Graphics/SVG/1.1/DTD/svg11.dtd"><svg t="1634872031900" class="icon" viewBox="0 0 1024 1024" version="1.1" xmlns="http://www.w3.org/2000/svg" p-id="4195" xmlns:xlink="http://www.w3.org/1999/xlink" width="200" height="200"><defs><style type="text/css"></style></defs><path d="M373.22126 530.961864l0 0.695848L651.809209 531.657712l0-0.846274c35.005258-5.957689 59.204403-39.987736 61.066821-74.66349-2.261507-42.781362-32.730449-73.233931-75.521021-75.532277-0.842181-0.026606-1.613754 0.044002-2.423189 0.027629 0.943488-4.225231 1.579985-8.508791 1.828648-12.809747-2.142803-39.575344-30.317493-67.750033-69.915349-69.870324-23.222911-1.24127-42.560328 10.611685-54.986335 27.932166-12.419867-16.363689-31.692816-26.674523-55.054897-27.932166-39.48427-2.127454-67.902506 33.521464-69.877487 69.870324-0.237407 4.689812 0.075725 9.184173 0.809435 13.527085-2.460028-0.376577-4.979408-0.587378-7.565303-0.744967-42.694381-2.303462-73.404824 36.237319-75.525114 75.532277C302.480102 496.30146 336.478428 525.852496 373.22126 530.961864L373.22126 530.961864zM373.22126 530.961864" p-id="4196"></path><path d="M878.603539 169.337733 134.205585 169.337733l0 490.819608 744.381581 0L878.587166 169.337733 878.603539 169.337733 878.603539 169.337733zM803.13573 584.712045 209.655997 584.712045 209.655997 244.76768 803.115264 244.76768l0 339.944366L803.13573 584.712045 803.13573 584.712045zM803.13573 584.712045" p-id="4197"></path><path d="M878.484835 682.959673 516.947685 682.959673l-21.225417 0L134.184095 682.959673 27.056216 826.114071l0 34.412764 958.541149 0 0-34.412764L878.484835 682.959673zM878.484835 682.959673" p-id="4198"></path></svg>